<svg width="1432" height="493" viewBox="0 0 1432 493" fill="none" xmlns="http://www.w3.org/2000/svg">
<g opacity="0.2" clip-path="url(#clip0_136_184)">
<line x1="-1.5" y1="520.664" x2="-1.5" y2="2.49988" stroke="#EC3A98" stroke-width="5" stroke-linecap="round"/>
<line x1="8.5" y1="520.664" x2="8.5" y2="67.1291" stroke="#EC3A98" stroke-width="5" stroke-linecap="round"/>
<line x1="18.5" y1="520.664" x2="18.5" y2="209.781" stroke="#EC3A98" stroke-width="5" stroke-linecap="round"/>
<line x1="28.5" y1="520.664" x2="28.5" y2="10.9998" stroke="#EC3A98" stroke-width="5" stroke-linecap="round"/>
<line x1="38.5" y1="520.664" x2="38.5" y2="205.522" stroke="#EC3A98" stroke-width="5" stroke-linecap="round"/>
<line x1="48.5" y1="520.664" x2="48.5" y2="239.642" stroke="#EC3A98" stroke-width="5" stroke-linecap="round"/>
<line x1="58.5" y1="520.664" x2="58.5" y2="33.735" stroke="#EC3A98" stroke-width="5" stroke-linecap="round"/>
<line x1="68.5" y1="520.664" x2="68.5" y2="16.0047" stroke="#EC3A98" stroke-width="5" stroke-linecap="round"/>
<line x1="78.5" y1="520.664" x2="78.5" y2="249.154" stroke="#EC3A98" stroke-width="5" stroke-linecap="round"/>
<line x1="88.5" y1="520.664" x2="88.5" y2="27.3513" stroke="#EC3A98" stroke-width="5" stroke-linecap="round"/>
<line x1="98.5" y1="520.664" x2="98.5" y2="125.044" stroke="#EC3A98" stroke-width="5" stroke-linecap="round"/>
<line x1="108.5" y1="520.664" x2="108.5" y2="118.693" stroke="#EC3A98" stroke-width="5" stroke-linecap="round"/>
<line x1="118.5" y1="520.664" x2="118.5" y2="73.6898" stroke="#EC3A98" stroke-width="5" stroke-linecap="round"/>
<line x1="128.5" y1="520.664" x2="128.5" y2="158.124" stroke="#EC3A98" stroke-width="5" stroke-linecap="round"/>
<line x1="138.5" y1="520.664" x2="138.5" y2="65.2461" stroke="#EC3A98" stroke-width="5" stroke-linecap="round"/>
<line x1="148.5" y1="520.664" x2="148.5" y2="84.3077" stroke="#EC3A98" stroke-width="5" stroke-linecap="round"/>
<line x1="158.5" y1="520.664" x2="158.5" y2="262.8" stroke="#EC3A98" stroke-width="5" stroke-linecap="round"/>
<line x1="168.5" y1="520.664" x2="168.5" y2="26.6806" stroke="#EC3A98" stroke-width="5" stroke-linecap="round"/>
<line x1="178.5" y1="520.664" x2="178.5" y2="35.458" stroke="#EC3A98" stroke-width="5" stroke-linecap="round"/>
<line x1="188.5" y1="520.664" x2="188.5" y2="141.805" stroke="#EC3A98" stroke-width="5" stroke-linecap="round"/>
<line x1="198.5" y1="520.664" x2="198.5" y2="245.885" stroke="#EC3A98" stroke-width="5" stroke-linecap="round"/>
<line x1="208.5" y1="520.664" x2="208.5" y2="95.0093" stroke="#EC3A98" stroke-width="5" stroke-linecap="round"/>
<line x1="218.5" y1="520.664" x2="218.5" y2="36.2332" stroke="#EC3A98" stroke-width="5" stroke-linecap="round"/>
<line x1="228.5" y1="520.664" x2="228.5" y2="31.5858" stroke="#EC3A98" stroke-width="5" stroke-linecap="round"/>
<line x1="238.5" y1="520.664" x2="238.5" y2="62.3943" stroke="#EC3A98" stroke-width="5" stroke-linecap="round"/>
<line x1="248.5" y1="520.664" x2="248.5" y2="82.5314" stroke="#EC3A98" stroke-width="5" stroke-linecap="round"/>
<line x1="258.5" y1="520.664" x2="258.5" y2="190.207" stroke="#EC3A98" stroke-width="5" stroke-linecap="round"/>
<line x1="268.5" y1="520.664" x2="268.5" y2="50.0607" stroke="#EC3A98" stroke-width="5" stroke-linecap="round"/>
<line x1="278.5" y1="520.664" x2="278.5" y2="29.8921" stroke="#EC3A98" stroke-width="5" stroke-linecap="round"/>
<line x1="288.5" y1="520.664" x2="288.5" y2="131.564" stroke="#EC3A98" stroke-width="5" stroke-linecap="round"/>
<line x1="298.5" y1="520.664" x2="298.5" y2="142.349" stroke="#EC3A98" stroke-width="5" stroke-linecap="round"/>
<line x1="308.5" y1="520.664" x2="308.5" y2="141.053" stroke="#EC3A98" stroke-width="5" stroke-linecap="round"/>
<line x1="318.5" y1="520.664" x2="318.5" y2="73.9653" stroke="#EC3A98" stroke-width="5" stroke-linecap="round"/>
<line x1="328.5" y1="520.664" x2="328.5" y2="140.465" stroke="#EC3A98" stroke-width="5" stroke-linecap="round"/>
<line x1="338.5" y1="520.664" x2="338.5" y2="189.636" stroke="#EC3A98" stroke-width="5" stroke-linecap="round"/>
<line x1="348.5" y1="520.664" x2="348.5" y2="124.852" stroke="#EC3A98" stroke-width="5" stroke-linecap="round"/>
<line x1="358.5" y1="520.664" x2="358.5" y2="72.9659" stroke="#EC3A98" stroke-width="5" stroke-linecap="round"/>
<line x1="368.5" y1="520.664" x2="368.5" y2="18.6571" stroke="#EC3A98" stroke-width="5" stroke-linecap="round"/>
<line x1="378.5" y1="520.664" x2="378.5" y2="183.242" stroke="#EC3A98" stroke-width="5" stroke-linecap="round"/>
<line x1="388.5" y1="520.664" x2="388.5" y2="146.487" stroke="#EC3A98" stroke-width="5" stroke-linecap="round"/>
<line x1="398.5" y1="520.664" x2="398.5" y2="144.929" stroke="#EC3A98" stroke-width="5" stroke-linecap="round"/>
<line x1="408.5" y1="520.664" x2="408.5" y2="244.79" stroke="#EC3A98" stroke-width="5" stroke-linecap="round"/>
<line x1="418.5" y1="520.664" x2="418.5" y2="103.114" stroke="#EC3A98" stroke-width="5" stroke-linecap="round"/>
<line x1="428.5" y1="520.664" x2="428.5" y2="155.565" stroke="#EC3A98" stroke-width="5" stroke-linecap="round"/>
<line x1="438.5" y1="520.664" x2="438.5" y2="193.584" stroke="#EC3A98" stroke-width="5" stroke-linecap="round"/>
<line x1="448.5" y1="520.664" x2="448.5" y2="110.719" stroke="#EC3A98" stroke-width="5" stroke-linecap="round"/>
<line x1="458.5" y1="520.664" x2="458.5" y2="220.665" stroke="#EC3A98" stroke-width="5" stroke-linecap="round"/>
<line x1="468.5" y1="520.664" x2="468.5" y2="91.8546" stroke="#EC3A98" stroke-width="5" stroke-linecap="round"/>
<line x1="478.5" y1="520.664" x2="478.5" y2="85.0108" stroke="#EC3A98" stroke-width="5" stroke-linecap="round"/>
<line x1="488.5" y1="520.664" x2="488.5" y2="249.572" stroke="#EC3A98" stroke-width="5" stroke-linecap="round"/>
<line x1="498.5" y1="520.664" x2="498.5" y2="54.4683" stroke="#EC3A98" stroke-width="5" stroke-linecap="round"/>
<line x1="508.5" y1="520.664" x2="508.5" y2="89.2065" stroke="#EC3A98" stroke-width="5" stroke-linecap="round"/>
<line x1="518.5" y1="520.664" x2="518.5" y2="126.908" stroke="#EC3A98" stroke-width="5" stroke-linecap="round"/>
<line x1="528.5" y1="520.664" x2="528.5" y2="36.8921" stroke="#EC3A98" stroke-width="5" stroke-linecap="round"/>
<line x1="538.5" y1="520.664" x2="538.5" y2="245.77" stroke="#EC3A98" stroke-width="5" stroke-linecap="round"/>
<line x1="548.5" y1="520.664" x2="548.5" y2="91.4641" stroke="#EC3A98" stroke-width="5" stroke-linecap="round"/>
<line x1="558.5" y1="520.664" x2="558.5" y2="103.334" stroke="#EC3A98" stroke-width="5" stroke-linecap="round"/>
<line x1="568.5" y1="520.664" x2="568.5" y2="67.5627" stroke="#EC3A98" stroke-width="5" stroke-linecap="round"/>
<line x1="578.5" y1="520.664" x2="578.5" y2="79.3731" stroke="#EC3A98" stroke-width="5" stroke-linecap="round"/>
<line x1="588.5" y1="520.664" x2="588.5" y2="37.4112" stroke="#EC3A98" stroke-width="5" stroke-linecap="round"/>
<line x1="598.5" y1="520.664" x2="598.5" y2="67.57" stroke="#EC3A98" stroke-width="5" stroke-linecap="round"/>
<line x1="608.5" y1="520.664" x2="608.5" y2="73.2808" stroke="#EC3A98" stroke-width="5" stroke-linecap="round"/>
<line x1="618.5" y1="520.664" x2="618.5" y2="36.443" stroke="#EC3A98" stroke-width="5" stroke-linecap="round"/>
<line x1="628.5" y1="520.664" x2="628.5" y2="240.323" stroke="#EC3A98" stroke-width="5" stroke-linecap="round"/>
<line x1="638.5" y1="520.664" x2="638.5" y2="42.9849" stroke="#EC3A98" stroke-width="5" stroke-linecap="round"/>
<line x1="648.5" y1="520.664" x2="648.5" y2="99.6946" stroke="#EC3A98" stroke-width="5" stroke-linecap="round"/>
<line x1="658.5" y1="520.664" x2="658.5" y2="123.477" stroke="#EC3A98" stroke-width="5" stroke-linecap="round"/>
<line x1="668.5" y1="520.664" x2="668.5" y2="262.377" stroke="#EC3A98" stroke-width="5" stroke-linecap="round"/>
<line x1="678.5" y1="520.664" x2="678.5" y2="84.3283" stroke="#EC3A98" stroke-width="5" stroke-linecap="round"/>
<line x1="688.5" y1="520.664" x2="688.5" y2="78.0116" stroke="#EC3A98" stroke-width="5" stroke-linecap="round"/>
<line x1="698.5" y1="520.664" x2="698.5" y2="177.955" stroke="#EC3A98" stroke-width="5" stroke-linecap="round"/>
<line x1="708.5" y1="520.664" x2="708.5" y2="172.762" stroke="#EC3A98" stroke-width="5" stroke-linecap="round"/>
<line x1="718.5" y1="520.664" x2="718.5" y2="96.0302" stroke="#EC3A98" stroke-width="5" stroke-linecap="round"/>
<line x1="728.5" y1="520.664" x2="728.5" y2="37.2627" stroke="#EC3A98" stroke-width="5" stroke-linecap="round"/>
<line x1="738.5" y1="520.664" x2="738.5" y2="16.8476" stroke="#EC3A98" stroke-width="5" stroke-linecap="round"/>
<line x1="748.5" y1="520.664" x2="748.5" y2="84.006" stroke="#EC3A98" stroke-width="5" stroke-linecap="round"/>
<line x1="758.5" y1="520.664" x2="758.5" y2="149.188" stroke="#EC3A98" stroke-width="5" stroke-linecap="round"/>
<line x1="768.5" y1="520.664" x2="768.5" y2="94.8705" stroke="#EC3A98" stroke-width="5" stroke-linecap="round"/>
<line x1="778.5" y1="520.664" x2="778.5" y2="37.0354" stroke="#EC3A98" stroke-width="5" stroke-linecap="round"/>
<line x1="788.5" y1="520.664" x2="788.5" y2="180.422" stroke="#EC3A98" stroke-width="5" stroke-linecap="round"/>
<line x1="798.5" y1="520.664" x2="798.5" y2="178.176" stroke="#EC3A98" stroke-width="5" stroke-linecap="round"/>
<line x1="808.5" y1="520.664" x2="808.5" y2="39.8435" stroke="#EC3A98" stroke-width="5" stroke-linecap="round"/>
<line x1="818.5" y1="520.664" x2="818.5" y2="57.1224" stroke="#EC3A98" stroke-width="5" stroke-linecap="round"/>
<line x1="828.5" y1="520.664" x2="828.5" y2="213.006" stroke="#EC3A98" stroke-width="5" stroke-linecap="round"/>
<line x1="838.5" y1="520.664" x2="838.5" y2="105.103" stroke="#EC3A98" stroke-width="5" stroke-linecap="round"/>
<line x1="848.5" y1="520.664" x2="848.5" y2="148.186" stroke="#EC3A98" stroke-width="5" stroke-linecap="round"/>
<line x1="858.5" y1="520.664" x2="858.5" y2="248.099" stroke="#EC3A98" stroke-width="5" stroke-linecap="round"/>
<line x1="868.5" y1="520.664" x2="868.5" y2="183.276" stroke="#EC3A98" stroke-width="5" stroke-linecap="round"/>
<line x1="878.5" y1="520.664" x2="878.5" y2="201.47" stroke="#EC3A98" stroke-width="5" stroke-linecap="round"/>
<line x1="888.5" y1="520.664" x2="888.5" y2="123.628" stroke="#EC3A98" stroke-width="5" stroke-linecap="round"/>
<line x1="898.5" y1="520.664" x2="898.5" y2="222.374" stroke="#EC3A98" stroke-width="5" stroke-linecap="round"/>
<line x1="908.5" y1="520.664" x2="908.5" y2="138.559" stroke="#EC3A98" stroke-width="5" stroke-linecap="round"/>
<line x1="918.5" y1="520.664" x2="918.5" y2="185.519" stroke="#EC3A98" stroke-width="5" stroke-linecap="round"/>
<line x1="928.5" y1="520.664" x2="928.5" y2="23.6204" stroke="#EC3A98" stroke-width="5" stroke-linecap="round"/>
<line x1="938.5" y1="520.664" x2="938.5" y2="179.291" stroke="#EC3A98" stroke-width="5" stroke-linecap="round"/>
<line x1="948.5" y1="520.664" x2="948.5" y2="94.9242" stroke="#EC3A98" stroke-width="5" stroke-linecap="round"/>
<line x1="958.5" y1="520.664" x2="958.5" y2="188.213" stroke="#EC3A98" stroke-width="5" stroke-linecap="round"/>
<line x1="968.5" y1="520.664" x2="968.5" y2="140.142" stroke="#EC3A98" stroke-width="5" stroke-linecap="round"/>
<line x1="978.5" y1="520.664" x2="978.5" y2="157.206" stroke="#EC3A98" stroke-width="5" stroke-linecap="round"/>
<line x1="988.5" y1="520.664" x2="988.5" y2="158.685" stroke="#EC3A98" stroke-width="5" stroke-linecap="round"/>
<line x1="998.5" y1="520.664" x2="998.5" y2="205.178" stroke="#EC3A98" stroke-width="5" stroke-linecap="round"/>
<line x1="1008.5" y1="520.664" x2="1008.5" y2="134.766" stroke="#EC3A98" stroke-width="5" stroke-linecap="round"/>
<line x1="1018.5" y1="520.664" x2="1018.5" y2="234.008" stroke="#EC3A98" stroke-width="5" stroke-linecap="round"/>
<line x1="1028.5" y1="520.664" x2="1028.5" y2="258.853" stroke="#EC3A98" stroke-width="5" stroke-linecap="round"/>
<line x1="1038.5" y1="520.664" x2="1038.5" y2="16.5836" stroke="#EC3A98" stroke-width="5" stroke-linecap="round"/>
<line x1="1048.5" y1="520.664" x2="1048.5" y2="258.867" stroke="#EC3A98" stroke-width="5" stroke-linecap="round"/>
<line x1="1058.5" y1="520.664" x2="1058.5" y2="210.006" stroke="#EC3A98" stroke-width="5" stroke-linecap="round"/>
<line x1="1068.5" y1="520.664" x2="1068.5" y2="2.49988" stroke="#EC3A98" stroke-width="5" stroke-linecap="round"/>
<line x1="1078.5" y1="520.664" x2="1078.5" y2="171.186" stroke="#EC3A98" stroke-width="5" stroke-linecap="round"/>
<line x1="1088.5" y1="520.664" x2="1088.5" y2="258.888" stroke="#EC3A98" stroke-width="5" stroke-linecap="round"/>
<line x1="1098.5" y1="520.664" x2="1098.5" y2="226.164" stroke="#EC3A98" stroke-width="5" stroke-linecap="round"/>
<line x1="1108.5" y1="520.664" x2="1108.5" y2="69.3709" stroke="#EC3A98" stroke-width="5" stroke-linecap="round"/>
<line x1="1118.5" y1="520.664" x2="1118.5" y2="201.643" stroke="#EC3A98" stroke-width="5" stroke-linecap="round"/>
<line x1="1128.5" y1="520.664" x2="1128.5" y2="108.006" stroke="#EC3A98" stroke-width="5" stroke-linecap="round"/>
<line x1="1138.5" y1="520.664" x2="1138.5" y2="148.933" stroke="#EC3A98" stroke-width="5" stroke-linecap="round"/>
<line x1="1148.5" y1="520.664" x2="1148.5" y2="118.778" stroke="#EC3A98" stroke-width="5" stroke-linecap="round"/>
<line x1="1158.5" y1="520.664" x2="1158.5" y2="130.959" stroke="#EC3A98" stroke-width="5" stroke-linecap="round"/>
<line x1="1168.5" y1="520.664" x2="1168.5" y2="259.211" stroke="#EC3A98" stroke-width="5" stroke-linecap="round"/>
<line x1="1178.5" y1="520.664" x2="1178.5" y2="43.3124" stroke="#EC3A98" stroke-width="5" stroke-linecap="round"/>
<line x1="1188.5" y1="520.664" x2="1188.5" y2="212.724" stroke="#EC3A98" stroke-width="5" stroke-linecap="round"/>
<line x1="1198.5" y1="520.664" x2="1198.5" y2="46.6234" stroke="#EC3A98" stroke-width="5" stroke-linecap="round"/>
<line x1="1208.5" y1="520.664" x2="1208.5" y2="56.9437" stroke="#EC3A98" stroke-width="5" stroke-linecap="round"/>
<line x1="1218.5" y1="520.664" x2="1218.5" y2="237.211" stroke="#EC3A98" stroke-width="5" stroke-linecap="round"/>
<line x1="1228.5" y1="520.664" x2="1228.5" y2="170.491" stroke="#EC3A98" stroke-width="5" stroke-linecap="round"/>
<line x1="1238.5" y1="520.664" x2="1238.5" y2="159.66" stroke="#EC3A98" stroke-width="5" stroke-linecap="round"/>
<line x1="1248.5" y1="520.664" x2="1248.5" y2="34.9074" stroke="#EC3A98" stroke-width="5" stroke-linecap="round"/>
<line x1="1258.5" y1="520.664" x2="1258.5" y2="59.272" stroke="#EC3A98" stroke-width="5" stroke-linecap="round"/>
<line x1="1268.5" y1="520.664" x2="1268.5" y2="35.9837" stroke="#EC3A98" stroke-width="5" stroke-linecap="round"/>
<line x1="1278.5" y1="520.664" x2="1278.5" y2="241.557" stroke="#EC3A98" stroke-width="5" stroke-linecap="round"/>
<line x1="1288.5" y1="520.664" x2="1288.5" y2="239.127" stroke="#EC3A98" stroke-width="5" stroke-linecap="round"/>
<line x1="1298.5" y1="520.664" x2="1298.5" y2="227.806" stroke="#EC3A98" stroke-width="5" stroke-linecap="round"/>
<line x1="1308.5" y1="520.664" x2="1308.5" y2="119.934" stroke="#EC3A98" stroke-width="5" stroke-linecap="round"/>
<line x1="1318.5" y1="520.664" x2="1318.5" y2="73.711" stroke="#EC3A98" stroke-width="5" stroke-linecap="round"/>
<line x1="1328.5" y1="520.664" x2="1328.5" y2="62.6715" stroke="#EC3A98" stroke-width="5" stroke-linecap="round"/>
<line x1="1338.5" y1="520.664" x2="1338.5" y2="174.961" stroke="#EC3A98" stroke-width="5" stroke-linecap="round"/>
<line x1="1348.5" y1="520.664" x2="1348.5" y2="140.894" stroke="#EC3A98" stroke-width="5" stroke-linecap="round"/>
<line x1="1358.5" y1="520.664" x2="1358.5" y2="17.9831" stroke="#EC3A98" stroke-width="5" stroke-linecap="round"/>
<line x1="1368.5" y1="520.664" x2="1368.5" y2="26.8495" stroke="#EC3A98" stroke-width="5" stroke-linecap="round"/>
<line x1="1378.5" y1="520.664" x2="1378.5" y2="117.482" stroke="#EC3A98" stroke-width="5" stroke-linecap="round"/>
<line x1="1388.5" y1="520.664" x2="1388.5" y2="50.4009" stroke="#EC3A98" stroke-width="5" stroke-linecap="round"/>
<line x1="1398.5" y1="520.664" x2="1398.5" y2="191.632" stroke="#EC3A98" stroke-width="5" stroke-linecap="round"/>
<line x1="1408.5" y1="520.664" x2="1408.5" y2="167.142" stroke="#EC3A98" stroke-width="5" stroke-linecap="round"/>
<line x1="1418.5" y1="520.664" x2="1418.5" y2="146.785" stroke="#EC3A98" stroke-width="5" stroke-linecap="round"/>
<line x1="1428.5" y1="520.664" x2="1428.5" y2="214.098" stroke="#EC3A98" stroke-width="5" stroke-linecap="round"/>
</g>
<defs>
<clipPath id="clip0_136_184">
<rect width="1432" height="523.164" fill="white"/>
</clipPath>
</defs>
</svg>
